<?xml version="1.0" encoding="utf-8"?>
<svg viewBox="0 0 500 500" xmlns="http://www.w3.org/2000/svg">
  <defs>
    <clipPath clipPathUnits="userSpaceOnUse" id="clipPath22">
      <path d="m 0,1024 1024,0 L 1024,0 0,0 Z" id="path20"/>
    </clipPath>
  </defs>
  <g id="g10" transform="matrix(1.129528, 0, 0, -0.850889, -294.280182, 873.536194)">
    <g id="g12" transform="translate(826.6959,202)"/>
    <g id="g16">
      <g id="g18" clip-path="url(#clipPath22)">
        <g id="g24" transform="translate(498.8374,117.9577)"/>
        <g id="g28" transform="translate(395.4373,181.3962)"/>
        <g id="g32" transform="translate(443.014,227.0314)"/>
        <g id="g36" transform="translate(572.586,218.379)">
          <path d="M -27.051 54.667 L 72.739 54.667 L -27.051 54.667 Z" style="fill:#000000;fill-opacity:1;fill-rule:nonzero;stroke:none" id="path38"/>
        </g>
        <g id="g40" transform="translate(253.4775,270.4165)"/>
        <g id="g44" transform="translate(701.4027,217.0457)"/>
        <g id="g48" transform="translate(439.2855,112.0015)"/>
        <g id="g52" transform="translate(627.2816,111.9747)"/>
        <g id="g56" transform="translate(332.0377,119.259)"/>
        <g id="g60" transform="translate(670.9521,119.2766)"/>
        <g id="g66" transform="matrix(0.780774, 0, 0, 1.028159, 325.362213, 683.560791)">
          <path d="m 0,0 c 0,0 -10.463,51.999 44.874,114.973 55.342,62.972 96.863,85.871 141.707,97.799 0,0 -0.038,-0.023 -0.078,-0.046 0.057,0.015 0.114,0.031 0.17,0.046 0,0 -35.227,-20.517 -35.227,-51.522 0,-9 1.435,-15.184 3.423,-19.315 2.638,-5.488 6.816,-7.354 10.567,-7.372 3.161,-0.018 5.011,1.281 9.01,2.834 l 0,-167.924 c 0,0 0.433,-2.707 2.863,-5.915 3.5,-4.613 9.001,-10.243 19.335,-10.3 17.629,0.113 39.802,20.026 39.802,20.026 l 0,135.964 c 0,13.832 -9.899,30.53 -20.389,36.259 0,0 1.429,0.09 3.743,0.089 6.926,0.002 21.784,-0.79 30.063,-7.115 2.3,2.665 39.418,44.665 105.466,57.589 0,0 -0.012,-0.013 -0.032,-0.037 0.061,0.012 0.12,0.025 0.181,0.037 0,0 -36.532,-43.016 -47.982,-64.348 -2.035,-0.121 -2.332,-40.471 -1.993,-80.79 0.329,-38.92 1.253,-77.818 1.789,-80.509 0,0 3.898,-5.794 13.824,-5.844 11.196,-0.057 30.063,7.195 59.643,38.288 l -0.001,-10e-4 0.001,10e-4 c 0,0 -0.78,-1.771 -2.35,-4.908 -8.477,-16.938 -39.975,-73.721 -95.925,-106.725 l -0.003,0.003 c -0.002,-10e-4 -0.004,-0.002 -0.005,-0.003 l -36.29,30.693 -0.927,0.774 -39.58,-41.967 c 0,0 -0.023,0.002 -0.06,0.006 l -0.005,-0.006 c 0,0 -90.232,7.633 -127.919,62.015 0,0 0.071,-0.026 0.178,-0.065 -0.016,0.022 -0.032,0.043 -0.047,0.065 0,0 5.707,-2.221 12.148,-2.342 7.547,-0.138 15.472,2.619 15.472,15.229 l 0,127.85 c 0,6.529 -4.495,13.853 -14.362,13.825 C 82.21,97.288 69.47,91.317 52.074,73.468 15.34,35.783 0.085,0 0.085,0 0.085,0 0.075,0.049 0.059,0.136 0.023,0.052 0,0 0,0 m 200.446,-216.757 c 70.386,0 136.56,27.41 186.33,77.18 49.771,49.771 77.18,115.944 77.18,186.33 0,70.386 -27.409,136.559 -77.18,186.33 -49.77,49.77 -115.944,77.18 -186.33,77.18 -70.386,0 -136.559,-27.41 -186.33,-77.18 -49.77,-49.771 -77.18,-115.944 -77.18,-186.33 0,-70.386 27.41,-136.559 77.18,-186.33 49.771,-49.77 115.944,-77.18 186.33,-77.18" style="fill:#000000;fill-opacity:1;fill-rule:nonzero;stroke:none" id="path68"/>
        </g>
        <g id="g70" transform="matrix(0.780774, 0, 0, 1.028159, 481.865143, 1015.033508)">
          <path d="m 0,0 c 152.232,0 275.641,-123.409 275.641,-275.641 0,-152.232 -123.409,-275.641 -275.641,-275.641 -152.232,0 -275.641,123.409 -275.641,275.641 C -275.641,-123.409 -152.232,0 0,0 m 0,-559.119 c 75.72,0 146.907,29.487 200.449,83.029 53.542,53.542 83.028,124.729 83.028,200.449 0,75.719 -29.486,146.907 -83.028,200.449 C 146.907,-21.65 75.72,7.836 0,7.836 c -75.72,0 -146.907,-29.486 -200.449,-83.028 -53.542,-53.542 -83.028,-124.73 -83.028,-200.449 0,-75.72 29.486,-146.907 83.028,-200.449 53.542,-53.542 124.729,-83.029 200.449,-83.029" style="fill:#000000;fill-opacity:1;fill-rule:nonzero;stroke:none" id="path72"/>
        </g>
      </g>
    </g>
  </g>
</svg>